<svg xmlns="http://www.w3.org/2000/svg" width="22.446" height="20.334" viewBox="0 0 22.446 20.334">
  <g id="noun_History_3325835" transform="translate(-150.282 -7.65)">
    <g id="Groupe_15570" data-name="Groupe 15570" transform="translate(150.282 7.65)">
      <path id="Tracé_10256" data-name="Tracé 10256" d="M10.01,14.339H22.628v.835a1.775,1.775,0,0,0-1.378,1.858V27.984H18.519V21.337a.418.418,0,0,0-.835,0v6.647H14.954V15.921a.418.418,0,1,0-.835,0V27.984H11.388V17.015a1.775,1.775,0,0,0-1.378-1.858Zm15.449-1.967a1.731,1.731,0,0,1-1.67-.568,1.608,1.608,0,0,1-.042-1.591,1.065,1.065,0,0,1,.923-.622.8.8,0,0,1,.71.317.676.676,0,0,1,.046.66.418.418,0,0,0,.781.3,1.516,1.516,0,0,0-.142-1.436,1.67,1.67,0,0,0-1.411-.672A1.854,1.854,0,0,0,23.045,9.83a2.459,2.459,0,0,0,.088,2.443.522.522,0,0,1,.038.05,2.384,2.384,0,0,0-.493,1.182H9.976a2.384,2.384,0,0,0-.493-1.182.522.522,0,0,1,.038-.05A2.459,2.459,0,0,0,9.609,9.83,1.854,1.854,0,0,0,8,8.756a1.67,1.67,0,0,0-1.411.672,1.516,1.516,0,0,0-.142,1.436.418.418,0,0,0,.781-.3.676.676,0,0,1,.046-.66.835.835,0,0,1,.693-.317,1.065,1.065,0,0,1,.885.622A1.608,1.608,0,0,1,8.812,11.8a1.7,1.7,0,0,1-1.67.568,2.053,2.053,0,0,1-2.063-2.163A2.868,2.868,0,0,1,8.189,7.65H24.411a2.854,2.854,0,0,1,3.111,2.56,2.068,2.068,0,0,1-2.063,2.18ZM22.34,9.909a.418.418,0,0,0-.418-.418H10.716a.418.418,0,0,0,0,.835H21.922A.418.418,0,0,0,22.34,9.909Z" transform="translate(-5.078 -7.65)"/>
    </g>
  </g>
</svg>
